<svg width="71" height="18" viewBox="0 0 71 18" fill="none" xmlns="http://www.w3.org/2000/svg">
<path d="M5.60369 0.636363L8.60795 6.35724L11.6868 0.636363H16.3423L11.6016 8.81818L16.4702 17H11.8359L8.60795 11.343L5.43324 17H0.745739L5.60369 8.81818L0.916193 0.636363H5.60369ZM25.8452 17.3196C24.169 17.3196 22.7273 16.9645 21.5199 16.2543C20.3196 15.5369 19.3963 14.5426 18.75 13.2713C18.1108 12 17.7912 10.5369 17.7912 8.8821C17.7912 7.20597 18.1143 5.7358 18.7607 4.47159C19.4141 3.20028 20.3409 2.20952 21.5412 1.49929C22.7415 0.78196 24.169 0.423296 25.8239 0.423296C27.2514 0.423296 28.5014 0.682528 29.5739 1.20099C30.6463 1.71946 31.495 2.44744 32.12 3.38494C32.745 4.32244 33.0895 5.4233 33.1534 6.6875H28.8707C28.75 5.87074 28.4304 5.21378 27.9119 4.71662C27.4006 4.21236 26.7294 3.96023 25.8984 3.96023C25.1953 3.96023 24.581 4.15199 24.0554 4.53551C23.5369 4.91193 23.1321 5.46236 22.8409 6.18679C22.5497 6.91122 22.4041 7.78835 22.4041 8.81818C22.4041 9.86222 22.5462 10.75 22.8303 11.4815C23.1214 12.2131 23.5298 12.7706 24.0554 13.1541C24.581 13.5376 25.1953 13.7294 25.8984 13.7294C26.4169 13.7294 26.8821 13.6229 27.294 13.4098C27.7131 13.1967 28.0575 12.8878 28.3274 12.483C28.6044 12.071 28.7855 11.5774 28.8707 11.0021H33.1534C33.0824 12.2521 32.7415 13.353 32.1307 14.3047C31.527 15.2493 30.6925 15.9879 29.6271 16.5206C28.5618 17.0533 27.3011 17.3196 25.8452 17.3196ZM43.4526 17.3196C41.7978 17.3196 40.3667 16.968 39.1593 16.2649C37.959 15.5547 37.0321 14.5675 36.3787 13.3033C35.7253 12.032 35.3986 10.5582 35.3986 8.8821C35.3986 7.19176 35.7253 5.71449 36.3787 4.45028C37.0321 3.17898 37.959 2.19176 39.1593 1.48864C40.3667 0.778409 41.7978 0.423296 43.4526 0.423296C45.1074 0.423296 46.535 0.778409 47.7353 1.48864C48.9426 2.19176 49.873 3.17898 50.5265 4.45028C51.1799 5.71449 51.5066 7.19176 51.5066 8.8821C51.5066 10.5582 51.1799 12.032 50.5265 13.3033C49.873 14.5675 48.9426 15.5547 47.7353 16.2649C46.535 16.968 45.1074 17.3196 43.4526 17.3196ZM43.4739 13.804C44.2267 13.804 44.8553 13.5909 45.3596 13.1648C45.8638 12.7315 46.2438 12.142 46.4995 11.3963C46.7623 10.6506 46.8936 9.80185 46.8936 8.85014C46.8936 7.89844 46.7623 7.04972 46.4995 6.30398C46.2438 5.55824 45.8638 4.96875 45.3596 4.53551C44.8553 4.10227 44.2267 3.88565 43.4739 3.88565C42.714 3.88565 42.0748 4.10227 41.5563 4.53551C41.0449 4.96875 40.6578 5.55824 40.3951 6.30398C40.1394 7.04972 40.0115 7.89844 40.0115 8.85014C40.0115 9.80185 40.1394 10.6506 40.3951 11.3963C40.6578 12.142 41.0449 12.7315 41.5563 13.1648C42.0748 13.5909 42.714 13.804 43.4739 13.804Z" fill="white"/>
<path d="M60.9348 15.8175V0.732243H64.7488V15.8175H60.9348ZM55.2992 10.1818V6.3679H70.3844V10.1818H55.2992Z" fill="#9765D8"/>
</svg>
