<svg width="192" height="173" viewBox="0 0 192 173" fill="none" xmlns="http://www.w3.org/2000/svg">
<g filter="url(#filter0_d_1_4196)">
<rect x="12" y="10" width="168" height="148.79" rx="8" fill="white"/>
</g>
<path fill-rule="evenodd" clip-rule="evenodd" d="M36.6976 49.2915C36.6976 49.3609 45.6894 57.412 56.6794 67.1834L76.6607 84.9492L72.9809 88.0973C70.9565 89.8288 61.9404 97.627 52.945 105.426C43.9491 113.226 36.3291 119.77 36.0117 119.968C35.6937 120.167 41.9166 120.246 49.8399 120.144C64.1665 119.959 64.2721 119.951 69.0478 118.61C74.8036 116.993 81.7508 114.097 84.4935 112.171C85.5899 111.401 88.7157 108.849 91.4402 106.5L96.3934 102.229L101.802 107.045C109.099 113.543 113.755 116.04 123.386 118.619C128.366 119.952 128.649 119.975 142.428 120.174L156.415 120.376L136.463 102.652L116.511 84.9281L124.245 78.1751C135.478 68.3676 149.653 56.0886 153.588 52.7578C155.465 51.1694 157 49.711 157 49.5175C157 49.324 152.336 49.1655 146.634 49.1655C132.116 49.1655 124.646 50.28 116.1 53.7215C110.401 56.0171 107.829 57.7383 100.541 64.1321L96.9049 67.3229L90.9014 62.1827C84.2448 56.4834 80.1819 54.2315 72.2242 51.8297C65.5494 49.815 59.4762 49.1655 47.316 49.1655C41.4758 49.1655 36.6976 49.2222 36.6976 49.2915Z" fill="black" fill-opacity="0.1"/>
<defs>
<filter id="filter0_d_1_4196" x="0" y="0" width="192" height="172.79" filterUnits="userSpaceOnUse" color-interpolation-filters="sRGB">
<feFlood flood-opacity="0" result="BackgroundImageFix"/>
<feColorMatrix in="SourceAlpha" type="matrix" values="0 0 0 0 0 0 0 0 0 0 0 0 0 0 0 0 0 0 127 0" result="hardAlpha"/>
<feOffset dy="2"/>
<feGaussianBlur stdDeviation="6"/>
<feComposite in2="hardAlpha" operator="out"/>
<feColorMatrix type="matrix" values="0 0 0 0 0 0 0 0 0 0 0 0 0 0 0 0 0 0 0.1 0"/>
<feBlend mode="normal" in2="BackgroundImageFix" result="effect1_dropShadow_1_4196"/>
<feBlend mode="normal" in="SourceGraphic" in2="effect1_dropShadow_1_4196" result="shape"/>
</filter>
</defs>
</svg>
